<?xml version="1.0" encoding="utf-8"?>
<!-- Generator: Adobe Illustrator 22.0.1, SVG Export Plug-In . SVG Version: 6.00 Build 0)  -->
<svg version="1.1" id="Layer_1" xmlns="http://www.w3.org/2000/svg" xmlns:xlink="http://www.w3.org/1999/xlink" x="0px" y="0px"
	 viewBox="0 0 180.3 59.6" style="enable-background:new 0 0 180.3 59.6;" xml:space="preserve">
<style type="text/css">
	.st0{fill:#BDD641;}
</style>
<g>
	<g>
		<g>
			<path class="st0" d="M42.1,59.6l-12.8,0l-8.5-18.3c-0.7-1.6-0.7-3.4,0.1-5l6.4-12.8L20.8,9.9c-0.2-0.4-0.5-1-0.5-1l-0.6-1.3h12.8
				l6.4,13.4c0.8,1.6,0.7,3.5-0.1,5.1l-6.4,12.8L42.1,59.6z M30.4,57.8l8.9,0l-8.8-18.9l6.8-13.6c0.6-1.1,0.6-2.4,0-3.5L31.5,9.4
				h-8.9l6.7,14.1L22.4,37c-0.5,1.1-0.6,2.4-0.1,3.5L30.4,57.8z"/>
			<path class="st0" d="M12.9,45.5L0,45.5l11-22L0,0h12.7l10,21.1c0.8,1.6,0.7,3.5-0.1,5.1L12.9,45.5z M2.8,43.7l9,0l9.2-18.4
				c0.6-1.1,0.6-2.4,0-3.5L11.6,1.7H2.7l10.2,21.8L2.8,43.7z"/>
		</g>
	</g>
	<g>
		<path class="st0" d="M52.3,42.4c-1,1.1-2.3,1.7-3.8,1.7c-2.7,0-4.9-2.1-4.9-4.9c0-2.8,2.2-4.9,4.9-4.9c1.4,0,2.8,0.6,3.8,1.7
			l-1.4,1.4c-0.5-0.9-1.4-1.4-2.4-1.4c-1.7,0-2.9,1.5-2.9,3.2c0,1.6,1.2,3.2,2.9,3.2c0.7,0,1.4-0.2,2.4-1.3L52.3,42.4z"/>
		<path class="st0" d="M66.8,39.2c0,2.8-2.2,4.9-4.9,4.9c-2.7,0-4.9-2.1-4.9-4.9c0-2.8,2.2-4.9,4.9-4.9
			C64.6,34.3,66.8,36.4,66.8,39.2 M59,39.2c0,1.6,1.2,3.2,2.9,3.2c1.7,0,2.9-1.6,2.9-3.2c0-1.6-1.2-3.2-2.9-3.2
			C60.2,36,59,37.5,59,39.2"/>
		<polygon class="st0" points="80.7,43.9 78.5,43.9 74.3,37.7 74.3,43.9 72.2,43.9 72.2,34.4 74.4,34.4 78.6,40.7 78.6,34.4 
			80.7,34.4 		"/>
		<path class="st0" d="M93.4,41.3c0,1.9-1.6,2.7-3.7,2.7c-1.7,0-2.8-0.7-3.8-1.8l1.4-1.4c0.3,0.7,1.4,1.5,2.4,1.5
			c0.7,0,1.6-0.2,1.6-1.1c0-0.8-1-1.2-1.7-1.4c-1.4-0.4-3.2-1.1-3.2-2.9c0-1.7,1.6-2.6,3.3-2.6c1.4,0,2.8,0.7,3.8,1.8l-1.4,1.4
			c-0.4-0.6-1.3-1.5-2.4-1.5c-0.6,0-1.3,0.3-1.3,1c0,0.8,1,1.1,1.7,1.3C91.7,38.7,93.4,39.5,93.4,41.3"/>
		<path class="st0" d="M106.4,34.4v5.7c0,1.6-0.6,3.9-3.9,3.9c-3.3,0-4-2.4-4-3.9v-5.7h2v5.7c0,0.5,0.1,2.2,1.9,2.2
			c1.8,0,1.9-1.8,1.9-2.2v-5.7H106.4z"/>
		<polygon class="st0" points="117.9,42.2 117.9,43.9 111.8,43.9 111.8,34.4 113.9,34.4 113.9,42.2 		"/>
		<polygon class="st0" points="128.9,36.1 126.1,36.1 126.1,43.9 124.1,43.9 124.1,36.1 121.3,36.1 121.3,34.4 128.9,34.4 		"/>
		<path class="st0" d="M143,39.2c0,2.8-2.2,4.9-4.9,4.9c-2.7,0-4.9-2.1-4.9-4.9c0-2.8,2.2-4.9,4.9-4.9C140.8,34.3,143,36.4,143,39.2
			 M135.2,39.2c0,1.6,1.2,3.2,2.9,3.2c1.7,0,2.9-1.6,2.9-3.2c0-1.6-1.2-3.2-2.9-3.2C136.4,36,135.2,37.5,135.2,39.2"/>
		<path class="st0" d="M153.7,40.9l2,3h-2.3l-1.7-2.6h-1.5v2.6h-2v-9.5h3.8c2,0,3.5,1.5,3.5,3.5C155.5,39.2,154.8,40.3,153.7,40.9
			 M150.2,39.7h1.8c0.8,0,1.5-0.7,1.5-1.8s-0.7-1.8-1.5-1.8h-1.8V39.7z"/>
		<polygon class="st0" points="167.8,42.2 167.8,43.9 160.9,43.9 160.9,34.4 167.6,34.4 167.6,36.1 163,36.1 163,38.1 166.7,38.1 
			166.7,39.8 163,39.8 163,42.2 		"/>
		<path class="st0" d="M180.2,41.3c0,1.9-1.6,2.7-3.7,2.7c-1.7,0-2.8-0.7-3.8-1.8l1.4-1.4c0.3,0.7,1.4,1.5,2.4,1.5
			c0.7,0,1.6-0.2,1.6-1.1c0-0.8-1-1.2-1.7-1.4c-1.4-0.4-3.2-1.1-3.2-2.9c0-1.7,1.6-2.6,3.3-2.6c1.4,0,2.8,0.7,3.8,1.8l-1.4,1.4
			c-0.4-0.6-1.3-1.5-2.4-1.5c-0.6,0-1.3,0.3-1.3,1c0,0.8,1,1.1,1.7,1.3C178.5,38.7,180.2,39.5,180.2,41.3"/>
	</g>
</g>
</svg>
