<svg id="6eda194e-b902-43ad-85ba-0cc1286dd4c7" data-name="Layer 1" xmlns="http://www.w3.org/2000/svg" xmlns:xlink="http://www.w3.org/1999/xlink" viewBox="0 0 384.11 229.93"><defs><style>.dd82785c-afb4-4f98-8a99-5cd3f972545e{fill:none;}.ea9b7ad8-6a66-4ec3-9111-9031638ad2a2{clip-path:url(#9aaeab66-155f-49ec-9146-f6a9d2695351);}.\38 dbbba14-e019-4a73-85fb-3f3de0d639a5{fill:#bed741;}.\36 74fcd08-34df-479d-8746-01ce0f58b7f6{fill:#4d4d4d;}.a0176896-2a9d-45c9-9f1c-77992e59b56f{fill:#bdd641;}</style><clipPath id="9aaeab66-155f-49ec-9146-f6a9d2695351" transform="translate(0.61 0.59)"><rect class="dd82785c-afb4-4f98-8a99-5cd3f972545e" width="382.89" height="229.34"/></clipPath></defs><title>monogramafooter</title><g class="ea9b7ad8-6a66-4ec3-9111-9031638ad2a2"><path class="8dbbba14-e019-4a73-85fb-3f3de0d639a5" d="M115,227.2a6.45,6.45,0,0,1-4.84,2.14,6.29,6.29,0,1,1,0-12.57,6.44,6.44,0,0,1,4.86,2.17l-1.77,1.76a3.59,3.59,0,0,0-3.09-1.75,4.13,4.13,0,0,0,0,8.21c.94,0,1.86-.28,3.1-1.7Z" transform="translate(0.61 0.59)"/><path class="8dbbba14-e019-4a73-85fb-3f3de0d639a5" d="M133.67,223.05a6.32,6.32,0,1,1-6.31-6.28,6.24,6.24,0,0,1,6.31,6.28m-10,0a3.71,3.71,0,1,0,7.38,0,3.71,3.71,0,1,0-7.38,0" transform="translate(0.61 0.59)"/><polygon class="8dbbba14-e019-4a73-85fb-3f3de0d639a5" points="152.19 229.78 149.38 229.78 143.94 221.72 143.94 229.78 141.3 229.78 141.3 217.49 144.09 217.49 149.55 225.57 149.55 217.49 152.19 217.49 152.19 229.78"/><path class="8dbbba14-e019-4a73-85fb-3f3de0d639a5" d="M168,225.8c0,2.41-2.1,3.54-4.74,3.54A6.2,6.2,0,0,1,158.4,227l1.83-1.82a3.86,3.86,0,0,0,3,1.95c.88,0,2.1-.24,2.1-1.36s-1.23-1.52-2.25-1.83c-1.85-.56-4.1-1.48-4.1-3.81s2.1-3.39,4.25-3.39a6.62,6.62,0,0,1,4.85,2.33l-1.77,1.77a4.32,4.32,0,0,0-3.08-1.92c-.79,0-1.63.35-1.63,1.23s1.23,1.41,2.17,1.71c2,.59,4.2,1.53,4.2,3.91" transform="translate(0.61 0.59)"/><path class="8dbbba14-e019-4a73-85fb-3f3de0d639a5" d="M184.83,216.9v7.39c0,2-.82,5.05-5.08,5.05s-5.1-3-5.1-5.05V216.9h2.62v7.39c0,.61.13,2.87,2.48,2.87s2.44-2.26,2.44-2.87V216.9Z" transform="translate(0.61 0.59)"/><polygon class="8dbbba14-e019-4a73-85fb-3f3de0d639a5" points="200.17 227.6 200.17 229.78 192.38 229.78 192.38 217.49 195.02 217.49 195.02 227.6 200.17 227.6"/><polygon class="8dbbba14-e019-4a73-85fb-3f3de0d639a5" points="214.42 219.67 210.86 219.67 210.86 229.78 208.22 229.78 208.22 219.67 204.66 219.67 204.66 217.49 214.42 217.49 214.42 219.67"/><path class="8dbbba14-e019-4a73-85fb-3f3de0d639a5" d="M231.94,223.05a6.32,6.32,0,1,1-6.31-6.28,6.24,6.24,0,0,1,6.31,6.28m-10,0a3.71,3.71,0,1,0,7.38,0,3.71,3.71,0,1,0-7.38,0" transform="translate(0.61 0.59)"/><path class="8dbbba14-e019-4a73-85fb-3f3de0d639a5" d="M245.78,225.29l2.64,3.9h-2.95l-2.25-3.34h-2v3.34h-2.65V216.9h4.94a4.47,4.47,0,0,1,4.54,4.48,4.36,4.36,0,0,1-2.31,3.91m-4.52-1.62h2.28a2.33,2.33,0,0,0,0-4.59h-2.28Z" transform="translate(0.61 0.59)"/><polygon class="8dbbba14-e019-4a73-85fb-3f3de0d639a5" points="264.6 227.6 264.6 229.78 255.71 229.78 255.71 217.49 264.3 217.49 264.3 219.67 258.33 219.67 258.33 222.31 263.22 222.31 263.22 224.5 258.33 224.5 258.33 227.6 264.6 227.6"/><path class="8dbbba14-e019-4a73-85fb-3f3de0d639a5" d="M280,225.8c0,2.41-2.1,3.54-4.74,3.54a6.24,6.24,0,0,1-4.88-2.31l1.84-1.82a3.84,3.84,0,0,0,3,1.95c.88,0,2.09-.24,2.09-1.36s-1.23-1.52-2.24-1.83c-1.85-.56-4.1-1.48-4.1-3.81s2.1-3.39,4.25-3.39a6.64,6.64,0,0,1,4.85,2.33l-1.77,1.77a4.34,4.34,0,0,0-3.08-1.92c-.79,0-1.63.35-1.63,1.23s1.23,1.41,2.17,1.71c2,.59,4.2,1.53,4.2,3.91" transform="translate(0.61 0.59)"/><path class="674fcd08-34df-479d-8746-01ce0f58b7f6" d="M10.05,184.47a5.77,5.77,0,0,1-5.74,5.74H-.61V162.55H4.31a5.76,5.76,0,0,1,5.74,5.74ZM7.91,168.29a3.58,3.58,0,0,0-3.6-3.61H1.52v23.39H4.31a3.57,3.57,0,0,0,3.6-3.6Z" transform="translate(0.61 0.59)"/><polygon class="674fcd08-34df-479d-8746-01ce0f58b7f6" points="24.8 165.27 24.8 175.88 29.76 175.88 29.76 178.05 24.8 178.05 24.8 188.66 31.85 188.66 31.85 190.79 22.67 190.79 22.67 163.14 31.52 163.14 31.52 165.27 24.8 165.27"/><path class="674fcd08-34df-479d-8746-01ce0f58b7f6" d="M42.92,172.75a5.9,5.9,0,0,1-1.23-3.44v-1.84a5.33,5.33,0,1,1,10.66,0v3.44l-2.13.25v-3.69a3.2,3.2,0,1,0-6.39,0v1.84a3.46,3.46,0,0,0,.73,2.05l6.52,7.74a6.08,6.08,0,0,1,1.27,3.53v2.66a5.33,5.33,0,0,1-10.66,0v-4.06l2.14-.24v4.3a3.2,3.2,0,1,0,6.39,0v-2.66a3.72,3.72,0,0,0-.78-2.13Z" transform="translate(0.61 0.59)"/><path class="674fcd08-34df-479d-8746-01ce0f58b7f6" d="M74.41,190.21H72.28l-1.11-7.09H65.55l-1.06,7.09H62.36l4.22-27.66h3.61ZM65.88,181h5l-2.42-16.06h-.08Z" transform="translate(0.61 0.59)"/><path class="674fcd08-34df-479d-8746-01ce0f58b7f6" d="M95.64,190.21H93.51V181a3.59,3.59,0,0,0-3.61-3.61H87.32v12.79H85.19V162.55H89.9a5.75,5.75,0,0,1,5.74,5.74v3.4a5.78,5.78,0,0,1-2.42,4.67A5.81,5.81,0,0,1,95.64,181ZM89.9,175.29a3.58,3.58,0,0,0,3.61-3.6v-3.4a3.59,3.59,0,0,0-3.61-3.61H87.32v10.61Z" transform="translate(0.61 0.59)"/><path class="674fcd08-34df-479d-8746-01ce0f58b7f6" d="M117.94,190.21h-2.13V181a3.59,3.59,0,0,0-3.61-3.61h-2.58v12.79h-2.13V162.55h4.71a5.75,5.75,0,0,1,5.74,5.74v3.4a5.8,5.8,0,0,1-2.41,4.67,5.82,5.82,0,0,1,2.41,4.67Zm-5.74-14.92a3.58,3.58,0,0,0,3.61-3.6v-3.4a3.59,3.59,0,0,0-3.61-3.61h-2.58v10.61Z" transform="translate(0.61 0.59)"/><path class="674fcd08-34df-479d-8746-01ce0f58b7f6" d="M129.59,167.47a5.33,5.33,0,1,1,10.66,0v17.82a5.33,5.33,0,0,1-10.66,0Zm2.13,17.82a3.2,3.2,0,1,0,6.39,0V167.47a3.2,3.2,0,1,0-6.39,0Z" transform="translate(0.61 0.59)"/><polygon class="674fcd08-34df-479d-8746-01ce0f58b7f6" points="161.76 188.66 161.76 190.79 152.95 190.79 152.95 163.14 155.08 163.14 155.08 188.66 161.76 188.66"/><polygon class="674fcd08-34df-479d-8746-01ce0f58b7f6" points="181.56 188.66 181.56 190.79 172.75 190.79 172.75 163.14 174.88 163.14 174.88 188.66 181.56 188.66"/><path class="674fcd08-34df-479d-8746-01ce0f58b7f6" d="M191.73,167.47a5.33,5.33,0,1,1,10.66,0v17.82a5.33,5.33,0,0,1-10.66,0Zm2.13,17.82a3.2,3.2,0,0,0,6.4,0V167.47a3.2,3.2,0,1,0-6.4,0Z" transform="translate(0.61 0.59)"/><path class="674fcd08-34df-479d-8746-01ce0f58b7f6" d="M238.55,190.21h-2.13V181a3.59,3.59,0,0,0-3.61-3.61h-2.58v12.79h-2.14V162.55h4.72a5.75,5.75,0,0,1,5.74,5.74v3.4a5.81,5.81,0,0,1-2.42,4.67,5.83,5.83,0,0,1,2.42,4.67Zm-5.74-14.92a3.58,3.58,0,0,0,3.61-3.6v-3.4a3.59,3.59,0,0,0-3.61-3.61h-2.58v10.61Z" transform="translate(0.61 0.59)"/><polygon class="674fcd08-34df-479d-8746-01ce0f58b7f6" points="253.14 165.27 253.14 175.88 258.1 175.88 258.1 178.05 253.14 178.05 253.14 188.66 260.19 188.66 260.19 190.79 251.01 190.79 251.01 163.14 259.86 163.14 259.86 165.27 253.14 165.27"/><path class="674fcd08-34df-479d-8746-01ce0f58b7f6" d="M275.57,176h5.33v14.59l-1.81-.37v-.95a5.34,5.34,0,0,1-8.85-4V167.47a5.33,5.33,0,0,1,10.66,0v3.28l-2.14.24v-3.52a3.2,3.2,0,1,0-6.39,0v17.82a3.2,3.2,0,1,0,6.39,0v-7.13h-3.19Z" transform="translate(0.61 0.59)"/><rect class="674fcd08-34df-479d-8746-01ce0f58b7f6" x="293.4" y="163.14" width="2.13" height="27.65"/><path class="674fcd08-34df-479d-8746-01ce0f58b7f6" d="M307,167.47a5.33,5.33,0,0,1,10.66,0v17.82a5.33,5.33,0,0,1-10.66,0Zm2.13,17.82a3.2,3.2,0,0,0,6.4,0V167.47a3.2,3.2,0,0,0-6.4,0Z" transform="translate(0.61 0.59)"/><polygon class="674fcd08-34df-479d-8746-01ce0f58b7f6" points="330.37 163.14 332.95 163.14 339.47 184.11 339.56 184.11 339.56 163.14 341.69 163.14 341.69 190.79 339.56 190.79 332.59 168.67 332.5 168.67 332.5 190.79 330.37 190.79 330.37 163.14"/><path class="674fcd08-34df-479d-8746-01ce0f58b7f6" d="M363.91,190.21h-2.13l-1.11-7.09h-5.62L354,190.21h-2.13l4.22-27.66h3.61ZM355.38,181h5l-2.42-16.06h-.08Z" transform="translate(0.61 0.59)"/><polygon class="674fcd08-34df-479d-8746-01ce0f58b7f6" points="384.12 188.66 384.12 190.79 375.3 190.79 375.3 163.14 377.43 163.14 377.43 188.66 384.12 188.66"/><path class="a0176896-2a9d-45c9-9f1c-77992e59b56f" d="M235.64,122.27l-26.31,0L191.75,84.5a11.91,11.91,0,0,1,.17-10.31l13.16-26.35L191.81,19.77l-1-2-1.24-2.58h26.45l13.11,27.72a11.9,11.9,0,0,1-.11,10.43L215.84,79.74Zm-24-3.65,18.35,0-18.14-39,14-28a8.3,8.3,0,0,0,.08-7.29L213.77,18.77H195.32l13.77,29.12-14,27.91A8.31,8.31,0,0,0,195,83Z" transform="translate(0.61 0.59)"/><path class="a0176896-2a9d-45c9-9f1c-77992e59b56f" d="M175.57,93.27l-26.68,0,22.67-45.38L148.87-.59h26.2L195.63,42.9a11.87,11.87,0,0,1-.11,10.43Zm-20.86-3.63,18.63,0,18.95-37.94a8.27,8.27,0,0,0,.08-7.28L172.79,3H154.54l21,44.88Z" transform="translate(0.61 0.59)"/></g></svg>