<?xml version="1.0" encoding="utf-8"?>
<!-- Generator: Adobe Illustrator 22.0.1, SVG Export Plug-In . SVG Version: 6.00 Build 0)  -->
<svg version="1.1" id="Layer_1" xmlns="http://www.w3.org/2000/svg" xmlns:xlink="http://www.w3.org/1999/xlink" x="0px" y="0px"
	 viewBox="0 0 323.8 271.1" style="enable-background:new 0 0 323.8 271.1;" xml:space="preserve">
<style type="text/css">
	.st0{fill:#1A1A1A;}
</style>
<g>
	<g>
		<g>
			<path class="st0" d="M196.5,68.2l0-51.9c3-0.9,5.2-3.7,5.2-7c0-4-3.3-7.3-7.3-7.3c-4,0-7.4,3.3-7.4,7.3c0,3.1,2.5,5.7,4.5,6.8
				v49.7l-24.2,18.5V42.1c3-1,5-3.7,5-6.9c0-4-3.2-7.3-7.2-7.3c-3.7,0-6.9,2.9-7.2,6.5c-0.4,3.6,1.8,6.6,4.9,7.7l0,45.9l-18.4,14.1
				l0,52c0.3,0,0.8-0.2,1.3-0.5c2.2-1.2,3.5-3.5,3.5-6l-0.1-43.2L196.5,68.2z"/>
			<path class="st0" d="M196.5,124.6v-26c3.2-1.6,8.3-7.6,1-12.9c-1-0.8-2.3-1.3-3.6-1.3c-4.1,0-7.4,3.2-7.4,7.3
				c0,3.2,2,5.9,4.9,6.9l0.2,32.9c0.7-0.4,1.3-0.8,1.9-1.3C195.4,129,196.5,126.9,196.5,124.6z"/>
			<path class="st0" d="M144.2,12.3v47.1c-2.8,0.9-4.7,3.4-4.9,6.4c-0.3,3.8,2.3,7,6,7.7c4.6,0.9,8.8-2.7,8.8-7.2
				c0-3.1-1.9-5.7-4.6-6.8l-0.2-55v0C146.1,6,144.2,9,144.2,12.3z"/>
			<path class="st0" d="M125.4,95.8c0.8,0.5,1.6,1,2.7,1.5V22.9L109.4,9.2c0.2-0.6,0.3-1.2,0.3-1.9c0-4-3.3-7.3-7.3-7.3
				c-4,0-7.3,3.3-7.3,7.3c0,4,3.3,7.3,7.3,7.3c1.6,0,3.2-0.5,4.4-1.5l16.6,12.1l0,66.7C123.3,93.5,124.1,95,125.4,95.8z"/>
		</g>
	</g>
	<g>
		<path class="st0" d="M44.5,180.5c0.1,0,1.2-0.3,1.6,1.3L58,229.2h-3.6c-0.1,0-1.2,0.3-1.6-1.3l-11.9-47.3H44.5z"/>
		<path class="st0" d="M24.4,192.8v-3.6L0.5,201c-0.8,0.4-0.7,6.3,0.1,6.7l23.8,12v-3.6c0-0.1-0.1-1.2-0.9-1.6L3.3,204.5l20.3-10.1
			C24.4,194,24.4,192.9,24.4,192.8z"/>
		<path class="st0" d="M299.4,216.2v3.6l23.9-11.8c0.8-0.4,0.7-6.3-0.1-6.7l-23.8-12v3.6c0,0.1,0.1,1.2,0.9,1.6l20.3,10.1
			l-20.3,10.1C299.4,215,299.4,216,299.4,216.2z"/>
		<path class="st0" d="M93.7,181.7c1.5,0,1.4,0.9,1.4,1.7V228h-4.6v-20.3c0-0.6-0.1-0.5-0.7-0.5h-5.1V228H80v-44.6
			c0-0.8,0.3-1.7,1.7-1.7h2.9v18.6c0,1.3,0.4,1.1,1.6,1.1h4.2v-19.7H93.7z"/>
		<path class="st0" d="M135.2,223.4c-0.5,1.2-1.3,3-1.5,3.4c-0.3,0.6-1.1,1.2-2.6,1.2h-10.6v-45.1c0-0.7,0.7-1.2,1.5-1.2h12.4
			l-1.6,3.4c-0.3,0.6-1,1.3-2.5,1.3h-3.8c-0.7,0-1.3,0.5-1.3,1.1v13.9h7.3c-0.5,1.2-1.3,3-1.5,3.4c-0.3,0.6-1,1.2-2.5,1.2h-2
			c-0.6,0-1.3,0.5-1.3,1.1v16.3H135.2z"/>
		<path class="st0" d="M173.7,223.4c-0.5,1.2-1.3,3-1.5,3.4c-0.3,0.6-1.1,1.2-2.6,1.2h-10.9v-46.3h2.8c0.8,0,1.8,0.5,1.8,1.3v40.3
			H173.7z"/>
		<path class="st0" d="M208.3,223.4c-0.5,1.2-1.3,3-1.5,3.4c-0.3,0.6-1.1,1.2-2.6,1.2h-10.8v-45.1c0-0.7,0.9-1.2,1.7-1.2h12.4
			l-1.6,3.4c-0.3,0.6-1,1.3-2.5,1.3h-3.8c-0.7,0-1.5,0.5-1.5,1.1v13.9h7.5c-0.5,1.2-1.3,3-1.5,3.4c-0.3,0.6-1,1.2-2.5,1.2h-2
			c-0.6,0-1.5,0.5-1.5,1.1v16.3H208.3z"/>
		<path class="st0" d="M244.4,228h-1.7c-2.6,0-3.2-2.1-3.4-3.1L234,202v26h-4.6v-46.3h2.5c2.6,0,2.9,1.2,3.2,2.5l4.7,24v-26.5h4.6
			V228z"/>
		<path class="st0" d="M283.5,228h-5.2l-4.2-31.8L270,228h-5.2l7-46.3h2.6c2,0,2.3,1.3,2.5,2.5L283.5,228z"/>
		<g>
			<path class="st0" d="M283.9,178.8c2,0,3.6,1.6,3.6,3.6c0,2-1.6,3.6-3.6,3.6c-2,0-3.6-1.6-3.6-3.6
				C280.2,180.4,281.9,178.8,283.9,178.8z M281.1,182.4c0,1.6,1.3,2.8,2.8,2.8c1.6,0,2.8-1.3,2.8-2.8c0-1.6-1.3-2.8-2.8-2.8
				C282.3,179.6,281.1,180.9,281.1,182.4z M284.7,183.1l0.7,1.2c0.1,0.1,0,0.3-0.2,0.3h-0.5c-0.1,0-0.2-0.1-0.2-0.2l-0.7-1.2
				c0-0.1-0.1-0.1-0.2-0.1h-0.2c0,0-0.1,0-0.1,0.1v1.2c0,0.1-0.1,0.2-0.2,0.2h-0.5c-0.1,0-0.2-0.1-0.2-0.2v-3.9
				c0-0.1,0.1-0.2,0.2-0.2h1.4c0.8,0,1.4,0.6,1.4,1.4c0,0.5-0.3,0.9-0.7,1.2C284.7,182.9,284.6,182.9,284.7,183.1z M284.1,182.3
				c0.3,0,0.6-0.3,0.6-0.6c0-0.3-0.3-0.6-0.6-0.6h-0.7c0,0-0.1,0-0.1,0.1v1c0,0.1,0,0.1,0.1,0.1H284.1z"/>
		</g>
	</g>
	<g>
		<path d="M22,265.6c0-0.1-0.1-0.2-0.2-0.2h-1.7c-0.2,0-0.4-0.2-0.4-0.4v-1c0-0.2,0.2-0.4,0.4-0.4h3.3c0.2,0,0.4,0.2,0.4,0.4v3.2
			c0,2.2-1.8,4-4.3,4c-2.3,0-4-1.5-4.3-4c-0.2-1.5-0.2-4.2,0-5.7c0.2-2.1,1.8-4,4.3-4c2.3,0,4.3,1.5,4.3,4v0.3
			c0,0.2-0.2,0.4-0.4,0.4h-1c-0.2,0-0.4-0.2-0.4-0.4v-0.3c0-1.1-1-2.1-2.5-2.1c-1.2,0-2.3,0.8-2.5,2.1c-0.2,1.6-0.2,4.1,0,5.7
			c0.2,1.1,1,2.1,2.5,2.1c1.3,0,2.5-0.7,2.5-2.1V265.6z"/>
		<path d="M29.6,269c0,0.1,0.1,0.2,0.2,0.2h4.6c0.2,0,0.4,0.2,0.4,0.4v1c0,0.2-0.2,0.4-0.4,0.4h-6.2c-0.2,0-0.4-0.2-0.4-0.4V258
			c0-0.2,0.2-0.4,0.4-0.4h6.1c0.2,0,0.4,0.2,0.4,0.4v1c0,0.2-0.2,0.4-0.4,0.4h-4.5c-0.1,0-0.2,0.1-0.2,0.2v3.4
			c0,0.1,0.1,0.2,0.2,0.2h4.3c0.2,0,0.4,0.2,0.4,0.4v1c0,0.2-0.2,0.4-0.4,0.4h-4.3c-0.1,0-0.2,0.1-0.2,0.2V269z"/>
		<path d="M46.9,261.5c0.2,1.5,0.2,4.2,0,5.7c-0.2,2.1-1.8,4-4.3,4c-2.3,0-4-1.5-4.3-4c-0.2-1.5-0.2-4.2,0-5.7c0.2-2.1,1.8-4,4.3-4
			C44.9,257.5,46.6,259,46.9,261.5z M45.1,267.2c0.2-1.6,0.2-4.1,0-5.7c-0.2-1.1-1-2.1-2.5-2.1c-1.2,0-2.3,0.8-2.5,2.1
			c-0.2,1.6-0.2,4.1,0,5.7c0.2,1.1,1,2.1,2.5,2.1C43.9,269.3,44.9,268.5,45.1,267.2z"/>
		<path d="M59.1,269c0,0.1,0.1,0.2,0.2,0.2h4.6c0.2,0,0.4,0.2,0.4,0.4v1c0,0.2-0.2,0.4-0.4,0.4h-6.2c-0.2,0-0.4-0.2-0.4-0.4V258
			c0-0.2,0.2-0.4,0.4-0.4h6.1c0.2,0,0.4,0.2,0.4,0.4v1c0,0.2-0.2,0.4-0.4,0.4h-4.5c-0.1,0-0.2,0.1-0.2,0.2v3.4
			c0,0.1,0.1,0.2,0.2,0.2h4.3c0.2,0,0.4,0.2,0.4,0.4v1c0,0.2-0.2,0.4-0.4,0.4h-4.3c-0.1,0-0.2,0.1-0.2,0.2V269z"/>
		<path d="M76.5,267.2c0,2.1-1.8,4-4.3,4c-2.3,0-4-1.5-4.3-4c-0.2-1.5-0.2-4.2,0-5.7c0.2-2.1,1.8-4,4.3-4c2.3,0,4.3,1.5,4.3,4v0.3
			c0,0.2-0.2,0.4-0.4,0.4h-1c-0.2,0-0.4-0.2-0.4-0.4v-0.3c0-1.1-1-2.1-2.5-2.1c-1.2,0-2.3,0.8-2.5,2.1c-0.2,1.6-0.2,4.1,0,5.7
			c0.2,1.1,1,2.1,2.5,2.1c1.3,0,2.5-0.8,2.5-2.1v-0.3c0-0.2,0.2-0.4,0.4-0.4h1c0.2,0,0.4,0.2,0.4,0.4V267.2z"/>
		<path d="M88.7,261.5c0.2,1.5,0.2,4.2,0,5.7c-0.2,2.1-1.8,4-4.3,4c-2.3,0-4-1.5-4.3-4c-0.2-1.5-0.2-4.2,0-5.7c0.2-2.1,1.8-4,4.3-4
			C86.7,257.5,88.4,259,88.7,261.5z M86.9,267.2c0.2-1.6,0.2-4.1,0-5.7c-0.2-1.1-1-2.1-2.5-2.1c-1.2,0-2.3,0.8-2.5,2.1
			c-0.2,1.6-0.2,4.1,0,5.7c0.2,1.1,1,2.1,2.5,2.1C85.7,269.3,86.7,268.5,86.9,267.2z"/>
		<path d="M98.9,271c-0.2,0-0.3-0.1-0.4-0.3l-3.7-9.4c0-0.1-0.2-0.1-0.2,0v9.3c0,0.2-0.2,0.4-0.4,0.4h-1c-0.2,0-0.4-0.2-0.4-0.4V258
			c0-0.2,0.2-0.4,0.4-0.4h1.6c0.2,0,0.3,0.1,0.4,0.3l3.7,9.4c0,0.1,0.2,0.1,0.2,0V258c0-0.2,0.2-0.4,0.4-0.4h1
			c0.2,0,0.4,0.2,0.4,0.4v12.5c0,0.2-0.2,0.4-0.4,0.4H98.9z"/>
		<path d="M113.5,261.5c0.2,1.5,0.2,4.2,0,5.7c-0.2,2.1-1.8,4-4.3,4c-2.3,0-4-1.5-4.3-4c-0.2-1.5-0.2-4.2,0-5.7c0.2-2.1,1.8-4,4.3-4
			C111.5,257.5,113.2,259,113.5,261.5z M111.7,267.2c0.2-1.6,0.2-4.1,0-5.7c-0.2-1.1-1-2.1-2.5-2.1c-1.2,0-2.3,0.8-2.5,2.1
			c-0.2,1.6-0.2,4.1,0,5.7c0.2,1.1,1,2.1,2.5,2.1C110.5,269.3,111.5,268.5,111.7,267.2z"/>
		<path d="M123,267.4c0,0.1,0.2,0.1,0.2,0l2.6-9.4c0.1-0.2,0.2-0.3,0.4-0.3h1.9c0.2,0,0.4,0.2,0.4,0.4v12.5c0,0.2-0.2,0.4-0.4,0.4
			h-1c-0.2,0-0.4-0.2-0.4-0.4v-9.5c0-0.1-0.1-0.1-0.2,0l-2.7,9.6c-0.1,0.2-0.2,0.3-0.4,0.3h-0.8c-0.2,0-0.3-0.1-0.4-0.3l-2.7-9.6
			c0-0.1-0.2-0.1-0.2,0v9.5c0,0.2-0.2,0.4-0.4,0.4h-1c-0.2,0-0.4-0.2-0.4-0.4V258c0-0.2,0.2-0.4,0.4-0.4h1.9c0.2,0,0.3,0.1,0.4,0.3
			L123,267.4z"/>
		<path d="M134.7,270.6c0,0.2-0.2,0.4-0.4,0.4h-1c-0.2,0-0.4-0.2-0.4-0.4V258c0-0.2,0.2-0.4,0.4-0.4h1c0.2,0,0.4,0.2,0.4,0.4V270.6z
			"/>
		<path d="M147.4,267.2c0,2.1-1.8,4-4.3,4c-2.3,0-4-1.5-4.3-4c-0.2-1.5-0.2-4.2,0-5.7c0.2-2.1,1.8-4,4.3-4c2.3,0,4.3,1.5,4.3,4v0.3
			c0,0.2-0.2,0.4-0.4,0.4h-1c-0.2,0-0.4-0.2-0.4-0.4v-0.3c0-1.1-1-2.1-2.5-2.1c-1.2,0-2.3,0.8-2.5,2.1c-0.2,1.6-0.2,4.1,0,5.7
			c0.2,1.1,1,2.1,2.5,2.1c1.3,0,2.5-0.8,2.5-2.1v-0.3c0-0.2,0.2-0.4,0.4-0.4h1c0.2,0,0.4,0.2,0.4,0.4V267.2z"/>
		<path d="M154.1,264.7c-1.9-0.4-3.2-1.6-3.2-3.6c0-2.3,2-3.6,3.9-3.6c2.2,0,3.9,1.6,3.9,3.6v0.2c0,0.2-0.2,0.4-0.4,0.4h-1
			c-0.2,0-0.4-0.2-0.4-0.4v-0.2c0-1.3-1.1-1.8-2.1-1.8c-1.2,0-2.1,0.7-2.1,1.8c0,1.7,1.6,1.8,2.8,2.1c2.2,0.5,3.5,1.7,3.5,3.9
			c0,2.4-2.1,4-4.3,4c-2.5,0-4.3-1.8-4.3-4v-0.3c0-0.2,0.2-0.4,0.4-0.4h1.1c0.2,0,0.4,0.2,0.4,0.4v0.3c0,1.2,1,2.1,2.5,2.1
			s2.5-0.9,2.5-2.1C157.3,265.4,156.1,265.1,154.1,264.7z"/>
		<path d="M170.4,263.5c-0.5-0.7-0.9-1.4-0.9-2.4c0-2,1.3-3.5,3.6-3.5c2,0,3.4,1.4,3.4,3.5v0.3c0,0.2-0.2,0.4-0.4,0.4h-1
			c-0.2,0-0.4-0.2-0.4-0.4v-0.3c0-1.1-0.6-1.9-1.7-1.9c-1.3,0-1.8,0.8-1.8,1.9c0,0.9,1.3,2.4,1.7,2.8l2.5,3.1c0.1,0.1,0.2,0.1,0.2,0
			c0,0,0.1-0.5,0.1-1.8c0-0.2,0.2-0.4,0.4-0.4h0.9c0.2,0,0.4,0.2,0.4,0.4c0,2.1-0.2,2.6-0.3,3c0,0.1-0.1,0.2,0,0.3l1.5,1.7
			c0.2,0.2,0.1,0.7-0.3,0.7h-0.9c-0.3,0-0.3-0.1-0.4-0.2l-0.7-0.8c-0.1-0.2-0.2,0-0.3,0c-0.7,0.7-1.7,1.1-2.8,1.1
			c-2.4,0-4.1-1.8-4.1-4c0-1.2,0.7-2.4,1.6-3.2C170.6,263.8,170.5,263.6,170.4,263.5z M174.6,268.8c0,0,0.1-0.1,0-0.2l-2.9-3.6
			c-0.1-0.1-0.1,0-0.1,0c-0.5,0.5-1,1.2-1,2.1c0,1.2,1,2.3,2.4,2.3C173.6,269.4,174.2,269.2,174.6,268.8z"/>
		<path d="M192.8,257.7c2.2,0,3.7,1.8,4,4c0.2,1.5,0.2,3.8,0,5.3c-0.2,2.2-1.8,4-4,4h-3.6c-0.2,0-0.4-0.2-0.4-0.4V258
			c0-0.2,0.2-0.4,0.4-0.4H192.8z M190.8,259.5c-0.1,0-0.2,0.1-0.2,0.2v9.3c0,0.1,0.1,0.2,0.2,0.2h2c1.2,0,2.1-1,2.2-2.2
			c0.2-1.5,0.2-3.8,0-5.3c-0.1-1.1-1-2.2-2.2-2.2H190.8z"/>
		<path d="M206.3,267.8c0-0.2-0.2-0.3-0.4-0.3h-3.2c-0.2,0-0.3,0.1-0.4,0.3l-0.8,2.9c-0.1,0.2-0.2,0.3-0.4,0.3h-1
			c-0.3,0-0.4-0.2-0.4-0.4l3.5-12.6c0-0.2,0.2-0.3,0.4-0.3h1.3c0.2,0,0.3,0.1,0.4,0.3l3.5,12.6c0,0.2-0.1,0.4-0.4,0.4h-1
			c-0.2,0-0.3-0.1-0.4-0.3L206.3,267.8z M205.5,265.7c0.1,0,0.2-0.1,0.2-0.2l-1.2-5.3c0-0.1,0-0.1-0.1-0.1h0c0,0-0.1,0-0.1,0.1
			l-1.2,5.3c0,0.2,0,0.2,0.2,0.2H205.5z"/>
		<path d="M215,259.6v10.9c0,0.2-0.2,0.4-0.4,0.4h-1c-0.2,0-0.4-0.2-0.4-0.4v-10.9c0-0.1-0.1-0.2-0.2-0.2h-2.5
			c-0.2,0-0.4-0.2-0.4-0.4v-1c0-0.2,0.2-0.4,0.4-0.4h7.2c0.2,0,0.4,0.2,0.4,0.4v1c0,0.2-0.2,0.4-0.4,0.4h-2.5
			C215.1,259.5,215,259.5,215,259.6z"/>
		<path d="M225.9,267.8c0-0.2-0.2-0.3-0.4-0.3h-3.2c-0.2,0-0.3,0.1-0.4,0.3l-0.8,2.9c-0.1,0.2-0.2,0.3-0.4,0.3h-1
			c-0.3,0-0.4-0.2-0.4-0.4l3.5-12.6c0-0.2,0.2-0.3,0.4-0.3h1.3c0.2,0,0.3,0.1,0.4,0.3l3.5,12.6c0,0.2-0.1,0.4-0.4,0.4h-1
			c-0.2,0-0.3-0.1-0.4-0.3L225.9,267.8z M225.1,265.7c0.1,0,0.2-0.1,0.2-0.2l-1.2-5.3c0-0.1,0-0.1-0.1-0.1h0c0,0-0.1,0-0.1,0.1
			l-1.2,5.3c0,0.2,0,0.2,0.2,0.2H225.1z"/>
		<path d="M243.3,267.8c0-0.2-0.2-0.3-0.4-0.3h-3.2c-0.2,0-0.3,0.1-0.4,0.3l-0.8,2.9c-0.1,0.2-0.2,0.3-0.4,0.3h-1
			c-0.3,0-0.4-0.2-0.4-0.4l3.5-12.6c0-0.2,0.2-0.3,0.4-0.3h1.3c0.2,0,0.3,0.1,0.4,0.3l3.5,12.6c0,0.2-0.1,0.4-0.4,0.4h-1
			c-0.2,0-0.3-0.1-0.4-0.3L243.3,267.8z M242.5,265.7c0.1,0,0.2-0.1,0.2-0.2l-1.2-5.3c0-0.1,0-0.1-0.1-0.1h0c0,0-0.1,0-0.1,0.1
			l-1.2,5.3c0,0.2,0,0.2,0.2,0.2H242.5z"/>
		<path d="M255.2,271c-0.2,0-0.3-0.1-0.4-0.3l-3.7-9.4c0-0.1-0.2-0.1-0.2,0v9.3c0,0.2-0.2,0.4-0.4,0.4h-1c-0.2,0-0.4-0.2-0.4-0.4
			V258c0-0.2,0.2-0.4,0.4-0.4h1.6c0.2,0,0.3,0.1,0.4,0.3l3.7,9.4c0,0.1,0.2,0.1,0.2,0V258c0-0.2,0.2-0.4,0.4-0.4h1
			c0.2,0,0.4,0.2,0.4,0.4v12.5c0,0.2-0.2,0.4-0.4,0.4H255.2z"/>
		<path d="M266.8,267.8c0-0.2-0.2-0.3-0.4-0.3h-3.2c-0.2,0-0.3,0.1-0.4,0.3l-0.8,2.9c-0.1,0.2-0.2,0.3-0.4,0.3h-1
			c-0.3,0-0.4-0.2-0.4-0.4l3.5-12.6c0-0.2,0.2-0.3,0.4-0.3h1.3c0.2,0,0.3,0.1,0.4,0.3l3.5,12.6c0,0.2-0.1,0.4-0.4,0.4h-1
			c-0.2,0-0.3-0.1-0.4-0.3L266.8,267.8z M266.1,265.7c0.1,0,0.2-0.1,0.2-0.2l-1.2-5.3c0-0.1,0-0.1-0.1-0.1h0c0,0-0.1,0-0.1,0.1
			l-1.2,5.3c0,0.2,0,0.2,0.2,0.2H266.1z"/>
		<path d="M274.5,269c0,0.1,0.1,0.2,0.2,0.2h4.3c0.2,0,0.4,0.2,0.4,0.4v1c0,0.2-0.2,0.4-0.4,0.4H273c-0.2,0-0.4-0.2-0.4-0.4V258
			c0-0.2,0.2-0.4,0.4-0.4h1c0.2,0,0.4,0.2,0.4,0.4V269z"/>
		<path d="M283.9,263.8c0,0.1,0.1,0.1,0.2,0l2.1-5.9c0.1-0.2,0.2-0.3,0.4-0.3h1.3c0.2,0,0.4,0.2,0.3,0.5l-3.2,8.2v4.2
			c0,0.2-0.2,0.4-0.4,0.4h-1.1c-0.2,0-0.4-0.2-0.4-0.4v-4.2l-3.2-8.2c-0.1-0.3,0.1-0.5,0.3-0.5h1.3c0.2,0,0.3,0.1,0.4,0.3
			L283.9,263.8z"/>
		<path d="M294.3,264.7c-1.9-0.4-3.2-1.6-3.2-3.6c0-2.3,2-3.6,3.9-3.6c2.2,0,3.9,1.6,3.9,3.6v0.2c0,0.2-0.2,0.4-0.4,0.4h-1
			c-0.2,0-0.4-0.2-0.4-0.4v-0.2c0-1.3-1.1-1.8-2.1-1.8c-1.2,0-2.1,0.7-2.1,1.8c0,1.7,1.6,1.8,2.8,2.1c2.2,0.5,3.5,1.7,3.5,3.9
			c0,2.4-2.1,4-4.3,4c-2.5,0-4.3-1.8-4.3-4v-0.3c0-0.2,0.2-0.4,0.4-0.4h1.1c0.2,0,0.4,0.2,0.4,0.4v0.3c0,1.2,1,2.1,2.5,2.1
			s2.5-0.9,2.5-2.1C297.5,265.4,296.2,265.1,294.3,264.7z"/>
		<path d="M304.8,270.6c0,0.2-0.2,0.4-0.4,0.4h-1c-0.2,0-0.4-0.2-0.4-0.4V258c0-0.2,0.2-0.4,0.4-0.4h1c0.2,0,0.4,0.2,0.4,0.4V270.6z
			"/>
		<path d="M312.1,264.7c-1.9-0.4-3.2-1.6-3.2-3.6c0-2.3,2-3.6,3.9-3.6c2.2,0,3.9,1.6,3.9,3.6v0.2c0,0.2-0.2,0.4-0.4,0.4h-1
			c-0.2,0-0.4-0.2-0.4-0.4v-0.2c0-1.3-1.1-1.8-2.1-1.8c-1.2,0-2.1,0.7-2.1,1.8c0,1.7,1.6,1.8,2.8,2.1c2.2,0.5,3.5,1.7,3.5,3.9
			c0,2.4-2.1,4-4.3,4c-2.5,0-4.3-1.8-4.3-4v-0.3c0-0.2,0.2-0.4,0.4-0.4h1.1c0.2,0,0.4,0.2,0.4,0.4v0.3c0,1.2,1,2.1,2.5,2.1
			s2.5-0.9,2.5-2.1C315.3,265.4,314,265.1,312.1,264.7z"/>
	</g>
</g>
</svg>
