<?xml version="1.0" encoding="utf-8"?>
<!-- Generator: Adobe Illustrator 22.0.1, SVG Export Plug-In . SVG Version: 6.00 Build 0)  -->
<svg version="1.1" id="Layer_1" xmlns="http://www.w3.org/2000/svg" xmlns:xlink="http://www.w3.org/1999/xlink" x="0px" y="0px"
	 viewBox="0 0 42.1 59.6" style="enable-background:new 0 0 42.1 59.6;" xml:space="preserve">
<style type="text/css">
	.st0{fill:#BDD641;}
</style>
<g>
	<g>
		<g>
			<path class="st0" d="M42.1,59.6l-12.8,0l-8.5-18.3c-0.7-1.6-0.7-3.4,0.1-5l6.4-12.8L20.8,9.9c-0.2-0.4-0.5-1-0.5-1l-0.6-1.3h12.8
				l6.4,13.4c0.8,1.6,0.7,3.5-0.1,5.1l-6.4,12.8L42.1,59.6z M30.4,57.8l8.9,0l-8.8-18.9l6.8-13.6c0.6-1.1,0.6-2.4,0-3.5L31.5,9.4
				h-8.9l6.7,14.1L22.4,37c-0.5,1.1-0.6,2.4-0.1,3.5L30.4,57.8z"/>
			<path class="st0" d="M12.9,45.5L0,45.5l11-22L0,0h12.7l10,21.1c0.8,1.6,0.7,3.5-0.1,5.1L12.9,45.5z M2.8,43.7l9,0l9.2-18.4
				c0.6-1.1,0.6-2.4,0-3.5L11.6,1.7H2.7l10.2,21.8L2.8,43.7z"/>
		</g>
	</g>
</g>
</svg>
